<svg id="Layer_1" enable-background="new 0 0 512 512" height="512" viewBox="0 0 512 512" width="512" xmlns="http://www.w3.org/2000/svg"><g><path d="m472 403.621v-231.658c0-4.142-3.357-7.5-7.5-7.5s-7.5 3.358-7.5 7.5v149.45c-8.353-9.012-19.943-23.069-31.445-42.079-19.198-31.731-41.96-83.978-43.475-154.834h74.92v14.905c0 4.142 3.357 7.5 7.5 7.5s7.5-3.358 7.5-7.5v-16.026c8.989-2.951 15.5-11.417 15.5-21.379 0-12.407-10.094-22.5-22.5-22.5h-8.487c-5.611-6.457-20.955-22.536-47.079-38.635-30.249-18.642-81.424-40.865-153.434-40.865-51.829 0-98.977 11.176-140.134 33.218-3.651 1.955-5.026 6.5-3.07 10.152 1.955 3.653 6.501 5.028 10.152 3.071 15.307-8.198 31.516-14.8 48.542-19.804-6.476 4.503-12.713 9.551-18.669 15.148-16.313 15.329-26.25 30.592-30.426 37.715h-46.014c5.067-4.775 11.833-10.585 20.332-16.713 3.36-2.423 4.119-7.11 1.697-10.47-2.422-3.359-7.111-4.119-10.47-1.697-17.33 12.496-27.98 23.74-32.452 28.88h-8.488c-12.407 0-22.5 10.093-22.5 22.5 0 9.963 6.511 18.429 15.5 21.379v280.241c-8.989 2.95-15.5 11.416-15.5 21.379 0 12.407 10.093 22.5 22.5 22.5h2.5v57c0 4.142 3.358 7.5 7.5 7.5h60c4.142 0 7.5-3.358 7.5-7.5v-57h35.321c4.142 0 7.5-3.358 7.5-7.5s-3.358-7.5-7.5-7.5h-112.821c-4.136 0-7.5-3.364-7.5-7.5s3.364-7.5 7.5-7.5h418c4.136 0 7.5 3.364 7.5 7.5s-3.364 7.5-7.5 7.5h-272.947c-4.142 0-7.5 3.358-7.5 7.5s3.358 7.5 7.5 7.5h195.447v57c0 4.142 3.357 7.5 7.5 7.5h60c4.143 0 7.5-3.358 7.5-7.5v-57h2.5c12.406 0 22.5-10.093 22.5-22.5 0-9.962-6.511-18.428-15.5-21.378zm-362.5 43.879v49.5h-45v-49.5zm-54.5-323h74.92c-1.515 70.856-24.276 123.104-43.475 154.834-11.503 19.012-23.093 33.068-31.445 42.079zm88.5 184c0-5.514 4.486-10 10-10h67c5.514 0 10 4.486 10 10s-4.486 10-10 10h-67c-5.514 0-10-4.486-10-10zm264.707 25c-9.07 21.557-14.191 44.87-15.07 69h-274.275c-.879-24.117-5.995-47.441-15.063-69zm-126.707-25c0-5.514 4.486-10 10-10h67c5.514 0 10 4.486 10 10s-4.486 10-10 10h-67c-5.514 0-10-4.486-10-10zm142.284-4.448c-3.046 4.694-5.868 9.516-8.475 14.448h-33.903c1.343-3.064 2.094-6.446 2.094-10 0-13.785-11.215-25-25-25h-67c-13.785 0-25 11.215-25 25 0 3.554.75 6.936 2.094 10h-25.187c1.343-3.064 2.094-6.446 2.094-10 0-13.785-11.215-25-25-25h-67c-13.785 0-25 11.215-25 25 0 3.554.75 6.936 2.094 10h-33.902c-2.607-4.932-5.436-9.75-8.481-14.442 3.507-4.988 7.1-10.436 10.696-16.347 10.382-17.066 21.743-39.777 30.591-67.832h253.003c8.848 28.055 20.209 50.765 30.591 67.832 3.594 5.909 7.186 11.355 10.691 16.341zm-45.614-99.172h-244.34c6.204-23.55 10.477-50.379 11.092-80.38h222.157c.615 30.001 4.888 56.83 11.091 80.38zm22.756-151.638c15.518 9.495 27.036 19.059 34.682 26.258h-46.001c-4.176-7.123-14.113-22.386-30.426-37.715-5.871-5.517-12.014-10.5-18.391-14.954 25.336 7.475 45.388 17.388 60.136 26.411zm-144.926-38.242c22.017 0 37.865 41.218 44.258 64.5h-88.523c6.376-23.281 22.204-64.5 44.265-64.5zm59.748 64.5c-1.932-7.588-5.873-21.361-12.048-35.29-4.471-10.086-9.302-18.463-14.475-25.113 21.645 5.53 41.499 16.644 59.295 33.255 10.604 9.898 18.341 19.891 23.296 27.147h-56.068zm-152.268-27.147c17.796-16.611 37.65-27.725 59.295-33.255-5.173 6.65-10.004 15.027-14.475 25.113-6.175 13.929-10.116 27.702-12.048 35.29h-56.069c4.956-7.258 12.692-17.25 23.297-27.148zm-116.48 42.147h418c4.136 0 7.5 3.364 7.5 7.5s-3.364 7.5-7.5 7.5h-418c-4.136 0-7.5-3.364-7.5-7.5s3.364-7.5 7.5-7.5zm8 308v-59.878c4.271-3.873 13.069-12.406 23.588-25.674 15.611 25.748 24.103 54.458 25.272 85.552zm353.14 0c1.169-31.111 9.669-59.813 25.278-85.545 10.517 13.265 19.313 21.796 23.582 25.668v59.877zm39.36 94.5h-45v-49.5h45z"/></g></svg>